<svg xmlns="http://www.w3.org/2000/svg" width="256.204" height="232.3" viewBox="0 0 256.204 232.3">
  <g id="Group_5" data-name="Group 5" transform="translate(0.007 0)">
    <path id="Path_34" data-name="Path 34" d="M26.744,0H89.185a26.744,26.744,0,0,1,26.744,26.744V87.99a26.744,26.744,0,0,1-26.744,26.744H26.744A26.744,26.744,0,0,1,0,87.99V26.744A26.744,26.744,0,0,1,26.744,0Z" transform="translate(24.963 57.803)" fill="#ed6b5b"/>
    <path id="Path_4" data-name="Path 4" d="M384.455,314.334a28.483,28.483,0,0,0-28.483,28.483v72.925a8.781,8.781,0,0,0,8.781,8.781h59.879A42.723,42.723,0,0,0,467.355,381.8V323.115a8.781,8.781,0,0,0-8.781-8.781Z" transform="translate(-328.736 -254.258)" fill="#22577a"/>
    <path id="Path_5" data-name="Path 5" d="M544.682,216.042H310.439a.413.413,0,0,1,0-.827H544.682a.413.413,0,1,1,0,.827Z" transform="translate(-301.78 -196.107)" fill="#e6e6e6"/>
    <ellipse id="Ellipse_2" data-name="Ellipse 2" cx="3.495" cy="3.573" rx="3.495" ry="3.573" transform="translate(16.884 0.38)" fill="#e6e6e6"/>
    <ellipse id="Ellipse_3" data-name="Ellipse 3" cx="3.495" cy="3.573" rx="3.495" ry="3.573" transform="translate(28.958 0.38)" fill="#e6e6e6"/>
    <ellipse id="Ellipse_4" data-name="Ellipse 4" cx="3.495" cy="3.573" rx="3.495" ry="3.573" transform="translate(41.033 0.38)" fill="#e6e6e6"/>
    <path id="Path_6" data-name="Path 6" d="M427.186,177.365a.412.412,0,0,1-.3-.124l-2.358-2.411a.413.413,0,0,1,0-.578l2.358-2.411a.413.413,0,1,1,.591.578l-2.076,2.122,2.076,2.122a.413.413,0,0,1-.3.7Z" transform="translate(-368.889 -170.587)" fill="#e6e6e6"/>
    <path id="Path_7" data-name="Path 7" d="M440.121,177.365a.413.413,0,0,1-.3-.7l2.076-2.122-2.076-2.122a.413.413,0,1,1,.591-.578l2.358,2.411a.413.413,0,0,1,0,.578l-2.358,2.411a.412.412,0,0,1-.3.124Z" transform="translate(-377.862 -170.587)" fill="#e6e6e6"/>
    <path id="Path_8" data-name="Path 8" d="M819.709,170.9h-4.385a.9.9,0,0,0-.905.905V176.2a.9.9,0,0,0,.905.905h4.385a.908.908,0,0,0,.909-.905V171.81a.908.908,0,0,0-.909-.905Z" transform="translate(-597.696 -170.111)" fill="#e6e6e6"/>
    <path id="Path_9" data-name="Path 9" d="M793.709,170.9h-4.385a.9.9,0,0,0-.905.905V176.2a.9.9,0,0,0,.905.905h4.385a.909.909,0,0,0,.909-.905V171.81a.909.909,0,0,0-.909-.905Z" transform="translate(-582.442 -170.111)" fill="#e6e6e6"/>
    <path id="Path_10" data-name="Path 10" d="M844.208,171.405h-4.385a.9.9,0,0,0-.905.905V176.7a.9.9,0,0,0,.905.905h4.385a.908.908,0,0,0,.909-.905V172.31A.908.908,0,0,0,844.208,171.405Z" transform="translate(-612.069 -170.404)" fill="#e6e6e6"/>
    <path id="Path_11" data-name="Path 11" d="M593.182,176.425H564.663a3.72,3.72,0,0,1,0-7.44h28.519a3.72,3.72,0,1,1,0,7.44Z" transform="translate(-448.988 -168.985)" fill="#e6e6e6"/>
    <path id="Path_12" data-name="Path 12" d="M433.041,482.487H369.393a1.373,1.373,0,0,1,0-2.745h63.649a1.373,1.373,0,1,1,0,2.745Z" transform="translate(-335.804 -351.299)" fill="#f9ac66"/>
    <path id="Path_13" data-name="Path 13" d="M387.308,387.765H291.439a1.373,1.373,0,1,1,0-2.745h95.869a1.373,1.373,0,1,1,0,2.745Z" transform="translate(-290.07 -295.728)" fill="#f9ac66"/>
    <path id="Path_14" data-name="Path 14" d="M387.3,415.375H291.432a1.374,1.374,0,1,0,0,2.747H387.3a1.374,1.374,0,1,0,0-2.747Z" transform="translate(-290.066 -313.536)" fill="#f9ac66"/>
    <path id="Path_15" data-name="Path 15" d="M387.308,448.485H291.439a1.373,1.373,0,1,1,0-2.745h95.869a1.373,1.373,0,1,1,0,2.745Z" transform="translate(-290.07 -331.351)" fill="#f9ac66"/>
    <path id="Path_16" data-name="Path 16" d="M421.363,524.617h-4.4l-2.094-16.976h6.5Z" transform="translate(-243.398 -297.821)" fill="#a0616a"/>
    <path id="Path_17" data-name="Path 17" d="M701.811,718.424H688.276v-.171a5.268,5.268,0,0,1,5.268-5.268h0l2.472-1.876,4.613,1.876h1.181Z" transform="translate(-523.691 -487.036)" fill="#2f2e41"/>
    <path id="Path_18" data-name="Path 18" d="M528.506,524.617h-4.4l-2.094-16.976h6.5Z" transform="translate(-306.256 -297.821)" fill="#a0616a"/>
    <path id="Path_19" data-name="Path 19" d="M808.955,718.424H795.42v-.171a5.268,5.268,0,0,1,5.268-5.268h0l2.472-1.876,4.613,1.876h1.181Z" transform="translate(-586.55 -487.036)" fill="#2f2e41"/>
    <path id="Path_20" data-name="Path 20" d="M710.747,479.072s-2.891,3.068-3.013,5.058,1.384-1.625-.122,1.99-1.506,1.205-1.506,3.615-3.192,4.763-3.192,4.763l-5.263,21.655,3.032,50.7h6.628c6.159-18.775,9.025-33.274,5.724-39.766l9.2-20.457s17.392,54.422,18.1,55.064.711-.263.711.641-.9,0,0,.9l4.218,4.218,6.326-.6s.847-39.4-6.2-46.211c0,0,1.628-21.087,0-21.028s-1.628,2.771-1.628.059a3.471,3.471,0,0,1,1.93-3.435L740.27,477.2Z" transform="translate(-529.191 -349.806)" fill="#2f2e41"/>
    <path id="Path_21" data-name="Path 21" d="M759.462,353.975l-6.125,25.647,1.447,9.539,1.736,11.428-6-.389-9.287-.6-17.244-1.116-1.509-50.611,7.911-8.266,1.414-4.013,11.437-.07,2.736,4.819,7.035,2a17.445,17.445,0,0,1,2.538,1.959,14.877,14.877,0,0,1,3.993,5.741,7.552,7.552,0,0,1,.409,1.889Z" transform="translate(-543.757 -266.687)" fill="#e6e6e6"/>
    <path id="Path_22" data-name="Path 22" d="M675.521,502.4a3.635,3.635,0,0,0,1.1-5.426l8.724-15.882-3.8-3.493-10.224,18.939a3.63,3.63,0,0,0,4.2,5.862Z" transform="translate(-513.051 -350.043)" fill="#e6e6e6"/>
    <path id="Path_23" data-name="Path 23" d="M703,357.913l-2.034,36.428-9.8,22.893-6.376,8.456.725-3.832-4.4-2.2-.413-.2,8.438-32.747.777-12.725a15.856,15.856,0,0,1,5.826-11.336l4.88-3.965Z" transform="translate(-519.253 -279.824)" fill="#e6e6e6"/>
    <path id="Path_24" data-name="Path 24" d="M675.521,502.4a3.635,3.635,0,0,0,1.1-5.426l8.724-15.882-3.8-3.493-10.224,18.939a3.63,3.63,0,0,0,4.2,5.862Z" transform="translate(-513.051 -350.043)" fill="#a0616a"/>
    <path id="Path_25" data-name="Path 25" d="M703,357.913l-2.034,36.428-9.8,22.893-6.376,8.456.725-3.832-4.4-2.2-.413-.2,8.438-32.747.777-12.725a15.856,15.856,0,0,1,5.826-11.336l4.88-3.965Z" transform="translate(-519.253 -279.824)" fill="#e6e6e6"/>
    <path id="Path_33" data-name="Path 33" d="M26.744,0H89.185a26.744,26.744,0,0,1,26.744,26.744v17.02A26.744,26.744,0,0,1,89.185,70.509H26.744A26.744,26.744,0,0,1,0,43.765V26.744A26.744,26.744,0,0,1,26.744,0Z" transform="translate(88.315 79.345)" fill="#3a3e59"/>
    <path id="Path_26" data-name="Path 26" d="M608.036,431.288H514.215a11.48,11.48,0,0,1-11.467-11.468v-48.4a11.48,11.48,0,0,1,11.467-11.467h93.821A11.48,11.48,0,0,1,619.5,371.419v48.4A11.48,11.48,0,0,1,608.036,431.288Zm-93.821-70.509a10.641,10.641,0,0,0-10.641,10.641V389.51a40.951,40.951,0,0,0,40.951,40.951h63.511a10.64,10.64,0,0,0,10.64-10.64v-48.4a10.641,10.641,0,0,0-10.641-10.641Z" transform="translate(-414.846 -281.021)" fill="#3f3d56"/>
    <rect id="Rectangle_5" data-name="Rectangle 5" width="24.799" height="2.893" rx="1.447" transform="translate(100.815 130.719)" fill="#f9ac66"/>
    <rect id="Rectangle_6" data-name="Rectangle 6" width="18.186" height="10.746" rx="3.5" transform="translate(173.559 126.792)" fill="#f9ac66"/>
    <circle id="Ellipse_5" data-name="Ellipse 5" cx="7.44" cy="7.44" r="7.44" transform="translate(100.815 91.66)" fill="#f9ac66"/>
    <circle id="Ellipse_6" data-name="Ellipse 6" cx="9.342" cy="9.342" r="9.342" transform="translate(184.005 48.019)" fill="#a0616a"/>
    <path id="Path_27" data-name="Path 27" d="M749.472,292.943c.073.558-.937.617-1.164.1a1.815,1.815,0,0,1,.355-1.582l.666-1.124a1.544,1.544,0,0,0-1.017-2.3h0a3.412,3.412,0,0,0-1.267-3.964c-1.215-.881-3.023.768-4.5,1.05s-2.654-.845-4-.177l.807-1.861-4.468,1.925,1.038-2.093c-1.128.061-1.608,1.435-1.833,2.542-.239,1.179-.868,2.653-2.15,2.409a1.654,1.654,0,0,1-1.251-1.239,7.319,7.319,0,0,1,5.7-8.665,5.6,5.6,0,0,1,10.7.509l1.25-1.53.244,2.168a2.371,2.371,0,0,1,2.183,1.33c.437.791.23,1.812.649,2.612a8.491,8.491,0,0,1-1.643,10.375" transform="translate(-548.462 -230.753)" fill="#2f2e41"/>
    <path id="Path_28" data-name="Path 28" d="M854.758,664.739a.938.938,0,0,0,.68-1.626l-.064-.255.026-.061a2.519,2.519,0,0,1,4.646.017,22.371,22.371,0,0,1,1.966,5.6,7.453,7.453,0,0,1-.131,2.563,29.875,29.875,0,0,0,2.718-12.408,28.842,28.842,0,0,0-.179-3.217q-.148-1.313-.411-2.608a30.223,30.223,0,0,0-5.993-12.809,8.043,8.043,0,0,1-3.345-3.47,6.137,6.137,0,0,1-.558-1.676,7.572,7.572,0,0,0,.491-2.611c.227-.344.633-.516.881-.852,1.233-1.671,2.931-1.379,3.818.892,1.894.956,1.912,2.541.75,4.066-.739.97-.841,2.283-1.49,3.321.067.085.136.168.2.254a30.423,30.423,0,0,1,3.175,5.03,12.645,12.645,0,0,1,.755-5.873,21.181,21.181,0,0,1,3.27-4.718,2.6,2.6,0,0,1,4.623,1.274l.007.067q-.266.15-.52.318a1.272,1.272,0,0,0,.513,2.315l.026,0a12.662,12.662,0,0,1-.334,1.893c1.53,5.917-1.773,8.072-6.49,8.169-.1.053-.206.107-.31.158a31.047,31.047,0,0,1,1.671,7.865,29.441,29.441,0,0,1-.021,4.754l.008-.056a7.781,7.781,0,0,1,2.656-4.493c2.044-1.679,4.932-2.3,7.137-3.647a1.46,1.46,0,0,1,2.237,1.421l-.009.059a8.546,8.546,0,0,0-.958.462q-.266.15-.52.318a1.272,1.272,0,0,0,.513,2.315l.026,0,.053.008a12.671,12.671,0,0,1-2.331,3.649c-.957,5.165-5.066,5.655-9.461,4.151h0a31.032,31.032,0,0,1-2.085,6.087h-7.448c-.027-.083-.051-.168-.075-.251a8.464,8.464,0,0,0,2.061-.123c-.553-.678-1.105-1.362-1.658-2.04a.461.461,0,0,1-.035-.04c-.28-.347-.563-.691-.844-1.038h0a12.394,12.394,0,0,1,.363-3.158Z" transform="translate(-620.983 -439.603)" fill="#fff"/>
    <path id="Path_29" data-name="Path 29" d="M577.124,729.127a.49.49,0,0,0,.492.492H714.132a.492.492,0,1,0,0-.984H577.616a.49.49,0,0,0-.492.492Z" transform="translate(-458.481 -497.319)" fill="#ccc"/>
    <path id="Path_30" data-name="Path 30" d="M759.691,496.773a3.636,3.636,0,0,0,.908-5.462l8.154-16.182-3.921-3.356-9.545,19.291a3.63,3.63,0,0,0,4.4,5.709Z" transform="translate(-562.366 -346.623)" fill="#a0616a"/>
    <path id="Path_31" data-name="Path 31" d="M783.87,362.5l.409,1.889-.98,26.4-4.187,10.829-4.265,11.04-.525,1.36-6.072,8.676.587-3.856-4.472-2.042-.417-.186,1.612-4.555,3.708-10.465,1.6-4.53.347-13.478.322-12.743a15.857,15.857,0,0,1,5.419-11.536l2.918-2.546A14.877,14.877,0,0,1,783.87,362.5Z" transform="translate(-568.086 -279.148)" fill="#e6e6e6"/>
    <path id="Path_32" data-name="Path 32" d="M534.56,487.984l-19.376-.413a9.1,9.1,0,0,1-9.09-9.093l-.827-20.258C507.647,474.735,516.79,485.212,534.56,487.984Z" transform="translate(-416.324 -338.672)" fill="#f9ac66"/>
  </g>
</svg>
