<svg xmlns="http://www.w3.org/2000/svg" width="60" height="37.078" viewBox="0 0 60 37.078">
  <path id="Icon_simple-mastercard" data-name="Icon simple-mastercard" d="M28.358,40.493c.145.123.3.245.452.365A18.541,18.541,0,1,1,28.8,9.971a3.83,3.83,0,0,0-.412.375,19.941,19.941,0,0,0-.033,30.148ZM41.46,6.876A18.445,18.445,0,0,0,31.2,9.971a3.829,3.829,0,0,1,.413.375,19.941,19.941,0,0,1,.033,30.148c-.145.122-.3.245-.453.365A18.542,18.542,0,1,0,41.46,6.876ZM30,10.851c-.24.188-.473.375-.7.578a18.528,18.528,0,0,0,0,27.975c.225.2.463.395.7.58.24-.185.473-.38.7-.58a18.528,18.528,0,0,0,0-27.975C30.475,11.228,30.24,11.038,30,10.851Z" transform="translate(0 -6.876)"/>
</svg>
