<svg xmlns="http://www.w3.org/2000/svg" width="45.004" height="18.471" viewBox="0 0 45.004 18.471">
  <path id="Icon_awesome-apple-pay" data-name="Icon awesome-apple-pay" d="M8.22,11.145A2.761,2.761,0,0,1,6,12.192,3.117,3.117,0,0,1,6.8,9.9,3.305,3.305,0,0,1,9,8.768a3.345,3.345,0,0,1-.78,2.377m.766,1.209c-1.223-.07-2.271.7-2.848.7s-1.477-.661-2.447-.64A3.614,3.614,0,0,0,.626,14.273C-.7,16.545.281,19.9,1.561,21.748c.626.914,1.371,1.92,2.355,1.884.935-.035,1.3-.6,2.426-.6s1.463.6,2.447.591c1.02-.021,1.659-.914,2.285-1.828a7.948,7.948,0,0,0,1.02-2.1,3.322,3.322,0,0,1-1.99-3.016,3.382,3.382,0,0,1,1.61-2.834,3.475,3.475,0,0,0-2.728-1.484m7.059-2.545v13.7h2.13V18.83h2.946A4.348,4.348,0,0,0,25.7,14.309a4.3,4.3,0,0,0-4.507-4.5H16.045Zm2.13,1.793H20.63c1.849,0,2.9.984,2.9,2.714s-1.055,2.728-2.911,2.728H18.176Zm11.4,12.016a3.51,3.51,0,0,0,3.136-1.751h.042v1.645h1.969v-6.82c0-1.976-1.582-3.255-4.015-3.255-2.257,0-3.93,1.294-3.994,3.066h1.92a1.871,1.871,0,0,1,2.011-1.4c1.3,0,2.032.6,2.032,1.723v.759l-2.658.162c-2.468.148-3.8,1.16-3.8,2.918S27.6,23.618,29.58,23.618Zm.577-1.624c-1.132,0-1.856-.548-1.856-1.378,0-.865.7-1.364,2.025-1.441l2.362-.148V19.8a2.311,2.311,0,0,1-2.531,2.194Zm7.207,5.245c2.074,0,3.052-.795,3.9-3.192L45,13.57H42.834l-2.5,8.093h-.042l-2.5-8.093H35.564l3.6,9.977-.2.6a1.693,1.693,0,0,1-1.793,1.427c-.169,0-.492-.021-.626-.035V27.19A7.37,7.37,0,0,0,37.364,27.239Z" transform="translate(0.004 -8.768)"/>
</svg>
