<svg xmlns="http://www.w3.org/2000/svg" width="60" height="60" viewBox="0 0 60 60">
  <path id="Icon_simple-americanexpress" data-name="Icon simple-americanexpress" d="M40.037,35.945a1.644,1.644,0,0,0-.86-1.555,4.017,4.017,0,0,0-2.025-.337H33.295V41.1h1.688V38.535h1.8c.6,0,.975.06,1.2.313a2.141,2.141,0,0,1,.26,1.375V41.1h1.65V39.71a2.131,2.131,0,0,0-.27-1.29,1.875,1.875,0,0,0-.825-.585l.05-.02a1.96,1.96,0,0,0,1.2-1.868Zm-2.175,1.018-.07-.005a1.578,1.578,0,0,1-.825.145H34.942V35.528H37a1.743,1.743,0,0,1,.825.125.664.664,0,0,1,.375.638.747.747,0,0,1-.335.675Zm12.88,2.63H47.5v1.5h3.26c1.69,0,2.625-.695,2.625-2.21a2,2,0,0,0-.468-1.455,2.929,2.929,0,0,0-1.825-.517l-.94-.037a1.662,1.662,0,0,1-.638-.075.53.53,0,0,1-.375-.525.55.55,0,0,1,.225-.525,1.237,1.237,0,0,1,.68-.15H53.12V34.093H49.745a2.1,2.1,0,0,0-2.4,2.1c0,2.25,1.94,2.137,3.517,2.175a.782.782,0,0,1,.563.15.568.568,0,0,1,.2.45.561.561,0,0,1-.2.45,1.018,1.018,0,0,1-.693.175ZM0,0V25.24l2.025-4.69H6.4l.563,1.16V20.55H12.07L13.2,23.1l1.093-2.532H30.543a2.7,2.7,0,0,1,1.89.59v-.575H36.9v.575a5.743,5.743,0,0,1,2.8-.575h6.515l.6,1.165V20.583h4.8l.635,1.162V20.58H56.89v9.87H52.175l-.9-1.5v1.462H45.393l-.64-1.575H43.3l-.675,1.535H39.587a5.5,5.5,0,0,1-2.7-.6v.6H29.662v-2.21c0-.3-.075-.3-.262-.337h-.262v2.59H15.168v-1.2l-.525,1.2H11.725l-.505-1.2v1.162H5.588l-.64-1.56H3.5l-.64,1.56H0V60H59.465V42.23a5.529,5.529,0,0,1-2.432.45H52.725v-.638a3.924,3.924,0,0,1-2.285.638H36.775V40.43c0-.3-.045-.3-.3-.3h-.187v2.555h-4.5V40.02a5.068,5.068,0,0,1-2.32.34h-.535v2.288h-5.45l-1.35-1.543-1.425,1.5H11.855V32.78H20.88l1.3,1.505,1.385-1.5h6.03a3.857,3.857,0,0,1,2.355.563v-.6h5.443a4.534,4.534,0,0,1,2.257.563v-.6h8.162v.6a3.08,3.08,0,0,1,2.008-.6H54.54v.6a3.325,3.325,0,0,1,2.1-.6h2.94V0ZM52.89,37.388c.01.013.015.03.025.04.025.025.06.025.08.05l-.1-.087ZM59.57,32.7h.163v1.388H59.57Zm.093,4.87v-.013c-.075-.062-.115-.12-.188-.175a2.665,2.665,0,0,0-1.91-.562l-.9-.03a2.2,2.2,0,0,1-.675-.075.53.53,0,0,1-.375-.525.6.6,0,0,1,.225-.51,1.216,1.216,0,0,1,.675-.125h3.057V34.09H56.365a2.118,2.118,0,0,0-2.4,2.1c0,2.25,1.95,2.137,3.525,2.175a.771.771,0,0,1,.56.15.559.559,0,0,1,.19.45.568.568,0,0,1-.225.45c-.112.14-.34.175-.675.175H54.12V41.1h3.218a2.576,2.576,0,0,0,2.25-.9h.075A2.257,2.257,0,0,0,60,38.9a2.2,2.2,0,0,0-.337-1.315ZM46.493,35.52V34.063H40.9v7.083h5.588V39.682H42.568V38.257H46.4V36.8H42.57V35.523M33.775,21.968h1.712V29h-1.71Zm-.96,1.89-.017.015a1.651,1.651,0,0,0-.85-1.56,3.951,3.951,0,0,0-2.025-.337H26.075v7.05H27.76V26.44h1.8a1.731,1.731,0,0,1,1.217.3,2.117,2.117,0,0,1,.267,1.37v.885h1.693V27.612a2.048,2.048,0,0,0-.275-1.29,1.973,1.973,0,0,0-.825-.592,1.984,1.984,0,0,0,1.18-1.875Zm-2.137.99H30.64a1.556,1.556,0,0,1-.825.14H27.75V23.43h2.062a1.876,1.876,0,0,1,.825.125.648.648,0,0,1,.375.625.71.71,0,0,1-.335.665ZM39.8,23.433h1.58v-1.5H39.77a3.393,3.393,0,0,0-2.55.825,3.819,3.819,0,0,0-.9,2.775,3.54,3.54,0,0,0,.9,2.685,3.508,3.508,0,0,0,2.425.775h1.95l.637-1.567H45.7l.655,1.567h3.4V23.718l3.18,5.275h2.375l0,.005V21.965h-1.71v4.908l-2.95-4.9h-2.55V28.5l-2.832-6.64h-2.51l-2.357,5.55h-.75a1.7,1.7,0,0,1-1.17-.335,2.482,2.482,0,0,1-.465-1.655,2.33,2.33,0,0,1,.485-1.575,1.571,1.571,0,0,1,1.29-.413Zm4.17-.27,1.16,2.8v.005H42.805l1.165-2.8ZM5.95,27.425l.635,1.57H10V23.483l2.43,5.512h1.46l2.433-5.5.037,5.5h1.725V21.97H15.3l-2.017,4.76-2.19-4.763H8.358v6.657L5.512,21.968H3.02L.025,28.993h1.8l.65-1.565H5.95ZM4.23,23.163l1.15,2.8-.008.005H3.085l1.143-2.8ZM29.64,34.05H24.285L22.16,36.358,20.1,34.053H13.365V41.1H20l2.138-2.33L24.2,41.1h3.255v-2.35h2.095c1.5,0,2.925-.41,2.925-2.362l-.015-.007c0-1.95-1.495-2.325-2.82-2.325ZM19.175,39.632l-.035-.005H15.05V38.235h3.675V36.8H15.05V35.525h4.2l1.833,2.05-1.91,2.06Zm6.605.825L23.205,37.59l2.575-2.77v5.632Zm3.883-3.145H27.45V35.52h2.212c.6,0,1.05.245,1.05.86s-.375.93-1.05.93Zm-4.745-13.88V21.968H19.325V29h5.593V27.55H21V26.14h3.817V24.7H21V23.433"/>
</svg>
