<svg xmlns="http://www.w3.org/2000/svg" width="60" height="18.39" viewBox="0 0 60 18.39">
  <path id="Icon_simple-visa" data-name="Icon simple-visa" d="M43.612,13.236a12.478,12.478,0,0,0-4.35-.753c-4.8,0-8.187,2.42-8.212,5.887-.03,2.55,2.41,3.985,4.252,4.84,1.893.875,2.525,1.425,2.52,2.212-.013,1.192-1.513,1.732-2.9,1.732a10.276,10.276,0,0,1-4.577-.937l-.6-.277-.677,3.995a16.246,16.246,0,0,0,5.437.938c5.1,0,8.438-2.4,8.478-6.1.04-2.032-1.275-3.575-4.052-4.845-1.685-.825-2.735-1.378-2.735-2.215,0-.74.9-1.53,2.773-1.53a8.9,8.9,0,0,1,3.637.683l.45.2.678-3.86-.118.025Zm12.458-.425H52.32a2.426,2.426,0,0,0-2.553,1.478L42.555,30.623h5.1l1.02-2.675,6.225.005c.153.625.6,2.67.6,2.67H60Zm-31.92-.15h4.858L25.97,30.483H21.11l3.04-17.828ZM11.8,22.483l.505,2.475L17.06,12.811h5.147L14.555,30.6H9.42L5.22,15.533a1,1,0,0,0-.45-.592A20.528,20.528,0,0,0,0,13.173L.063,12.8H7.89a2.034,2.034,0,0,1,2.207,1.51L11.8,22.491ZM50.073,24.3l1.937-4.985c-.025.05.4-1.03.645-1.7l.332,1.537L54.11,24.3H50.072v0Z" transform="translate(0 -12.483)"/>
</svg>
