<svg xmlns="http://www.w3.org/2000/svg" width="50" height="50" viewBox="0 0 50 50">
  <path id="Icon_material-fingerprint" data-name="Icon material-fingerprint" d="M45.651,9.175a1.4,1.4,0,0,1-.639-.15A34.636,34.636,0,0,0,29.537,5.5,34.621,34.621,0,0,0,14.062,9.025a1.5,1.5,0,0,1-1.889-.5,1.2,1.2,0,0,1,.556-1.7A38,38,0,0,1,29.537,3,38.1,38.1,0,0,1,46.29,6.8a1.167,1.167,0,0,1,.583,1.675A1.382,1.382,0,0,1,45.651,9.175ZM5.893,22.3a1.563,1.563,0,0,1-.806-.225,1.17,1.17,0,0,1-.333-1.75A28.051,28.051,0,0,1,15.173,12.15a35.285,35.285,0,0,1,28.645-.025A28.183,28.183,0,0,1,54.236,20.25,1.173,1.173,0,0,1,53.9,22a1.486,1.486,0,0,1-1.945-.3,25.493,25.493,0,0,0-9.419-7.35,32.211,32.211,0,0,0-26.116.025,25.745,25.745,0,0,0-9.446,7.4,1.25,1.25,0,0,1-1.084.525ZM23.258,52.475a1.376,1.376,0,0,1-.972-.375A25.767,25.767,0,0,1,16.7,45.5a20.435,20.435,0,0,1-2.917-10.85c0-7.425,7.057-13.475,15.725-13.475s15.725,6.05,15.725,13.475a1.4,1.4,0,0,1-2.778,0c0-6.05-5.807-10.975-12.947-10.975S16.562,28.6,16.562,34.65a18.035,18.035,0,0,0,2.584,9.625,24.148,24.148,0,0,0,5.14,6.05,1.193,1.193,0,0,1,0,1.775A1.619,1.619,0,0,1,23.258,52.475ZM43.179,47.85a16.2,16.2,0,0,1-8.613-2.225A13.024,13.024,0,0,1,27.953,34.65a1.4,1.4,0,0,1,2.778,0,10.527,10.527,0,0,0,5.39,8.9,13.2,13.2,0,0,0,7.057,1.775,20.349,20.349,0,0,0,2.889-.25A1.378,1.378,0,0,1,47.68,46.1a1.265,1.265,0,0,1-1.139,1.45,21.027,21.027,0,0,1-3.362.3ZM37.594,53a1.794,1.794,0,0,1-.361-.05A22.387,22.387,0,0,1,26.9,47.7a17.374,17.374,0,0,1-6.029-13.05c0-4.05,3.834-7.35,8.557-7.35s8.557,3.3,8.557,7.35c0,2.675,2.584,4.85,5.779,4.85s5.779-2.175,5.779-4.85c0-9.425-9.03-17.075-20.143-17.075-7.891,0-15.114,3.95-18.365,10.075a14.733,14.733,0,0,0-1.639,7,22.629,22.629,0,0,0,1.861,9.025,1.189,1.189,0,0,1-.806,1.6,1.427,1.427,0,0,1-1.778-.725,25.4,25.4,0,0,1-2.028-9.9,17.2,17.2,0,0,1,1.889-8.1c3.7-6.975,11.891-11.5,20.865-11.5,12.641,0,22.921,8.775,22.921,19.575,0,4.05-3.834,7.35-8.557,7.35s-8.557-3.3-8.557-7.35c0-2.675-2.584-4.85-5.779-4.85s-5.779,2.175-5.779,4.85a14.992,14.992,0,0,0,5.2,11.275,19.5,19.5,0,0,0,9.085,4.625A1.232,1.232,0,0,1,38.9,52.05a1.333,1.333,0,0,1-1.306.95Z" transform="translate(-4.495 -3)"/>
</svg>
