<svg data-v-fde0c5aa="" xmlns="http://www.w3.org/2000/svg" viewBox="0 0 300 300" class="iconLeftSlogan"><!----><defs data-v-fde0c5aa=""><!----></defs><rect data-v-fde0c5aa="" fill="#000" fill-opacity="0.0" x="0" y="0" width="300px" height="300px" class="logo-background-square"></rect><defs data-v-fde0c5aa=""><!----></defs><g data-v-fde0c5aa="" id="48d88d2e-0ebf-41ef-9020-dbdadf2d9246" fill="#000" transform="matrix(2.8578335262788337,0,0,2.8578335262788337,118.39435180493848,124.39622892266995)"><path d="M1.99 6.86C1.99 5.10 2.80 4.31 3.82 4.31C4.61 4.31 5.22 4.75 5.45 5.81L6.96 5.52C6.57 3.85 5.39 3.01 3.82 3.01C1.85 3.01 0.43 4.35 0.43 6.86C0.43 9.37 1.85 10.71 3.82 10.71C5.39 10.71 6.57 9.88 6.96 8.22L5.45 7.92C5.22 8.97 4.61 9.42 3.82 9.42C2.79 9.42 1.99 8.62 1.99 6.86ZM9.81 10.50L9.81 6.82C9.81 5.40 10.42 4.47 11.62 4.47C12.05 4.47 12.33 4.59 12.61 4.77L12.96 3.39C12.63 3.12 12.24 3.01 11.68 3.01C10.72 3.01 10.15 3.50 9.69 4.48L9.69 3.22L8.26 3.22L8.26 10.50ZM18.17 9.66C18.20 9.97 18.26 10.30 18.47 10.50L20.03 10.50C19.78 10.23 19.64 9.76 19.64 9.02L19.64 5.92C19.64 3.95 18.62 3.01 16.70 3.01C15.32 3.01 13.97 3.53 13.61 5.21L15.01 5.59C15.22 4.79 15.71 4.27 16.59 4.27C17.53 4.27 18.09 4.75 18.09 5.64L18.09 5.88C17.72 6.05 17.01 6.17 16.24 6.24C14.57 6.43 13.38 7.04 13.38 8.61C13.38 10.04 14.52 10.71 15.85 10.71C16.72 10.71 17.49 10.43 18.17 9.66ZM18.09 8.41C17.75 8.90 16.98 9.51 16.14 9.51C15.50 9.51 14.98 9.24 14.98 8.53C14.97 7.67 15.71 7.48 16.44 7.35C17.14 7.24 17.78 7.08 18.09 6.96ZM24.37 10.50L25.83 5.17L27.19 10.50L28.66 10.50L30.93 3.22L29.44 3.22L27.92 8.54L26.54 3.22L25.07 3.22L23.67 8.69L22.25 3.22L20.68 3.22L22.88 10.50ZM33.47 10.50L33.47 0.21L31.92 0.77L31.92 10.50ZM36.75 10.50L36.75 0.21L35.20 0.77L35.20 10.50ZM44.84 7.28C44.86 7.21 44.86 6.85 44.86 6.66C44.86 4.44 43.55 3.01 41.48 3.01C39.52 3.01 38.05 4.35 38.05 6.86C38.05 9.37 39.52 10.71 41.48 10.71C43.13 10.71 44.30 9.93 44.76 8.37L43.29 8.06C43.08 8.93 42.38 9.42 41.58 9.42C40.57 9.42 39.70 8.76 39.61 7.28ZM41.47 4.31C42.52 4.31 43.19 5.05 43.25 6.13L39.65 6.13C39.83 4.89 40.66 4.31 41.47 4.31ZM49.41 9.20C49.18 9.27 48.97 9.28 48.83 9.28C48.17 9.28 48.17 8.83 48.17 8.20L48.17 4.44L49.46 4.44L49.46 3.22L48.17 3.22L48.17 0.85L46.62 1.46L46.62 3.22L45.58 3.22L45.58 4.44L46.62 4.44L46.62 8.37C46.62 9.80 46.94 10.64 48.47 10.64C48.73 10.64 49.27 10.57 49.55 10.47Z"></path></g><defs data-v-fde0c5aa=""><!----></defs><g data-v-fde0c5aa="" id="123cad5e-8bc9-428d-b2ba-d08941c8f1c9" stroke="none" fill="#BF4040" transform="matrix(1.0578808403524407,0,0,1.0578808403524407,20.764550064870715,98.69701045957041)"><g><path d="M27.711 36.773l-1.308-3.176 34.38-14.157h.34c4.893 0 8.874 3.981 8.874 8.874v6.584h-3.435v-6.584a5.445 5.445 0 0 0-5.121-5.43l-33.73 13.889z"></path><path d="M72.287 77.552h-45.23c-4.893 0-8.874-3.981-8.874-8.874V42.342c0-4.893 3.981-8.874 8.874-8.874h45.23c4.893 0 8.874 3.981 8.874 8.874v26.336c-.001 4.893-3.981 8.874-8.874 8.874zm-45.23-40.649a5.445 5.445 0 0 0-5.439 5.439v26.336a5.445 5.445 0 0 0 5.439 5.439h45.23a5.445 5.445 0 0 0 5.439-5.439V42.342a5.445 5.445 0 0 0-5.439-5.439h-45.23z"></path><path d="M70.092 56.941h-6.87a1.718 1.718 0 1 1 0-3.436h6.87a1.718 1.718 0 1 1 0 3.436z"></path></g></g><defs data-v-fde0c5aa=""><!----></defs><g data-v-fde0c5aa="" id="3e2b8a81-56ae-4dc3-ac99-1c1c31d26806" fill="#000" transform="matrix(0.2872746986835289,0,0,0.2872746986835289,119.52267409029079,164.21649333583133)"><path d="M0.35 10.04L0.35 10.04L0.84 9.98L1.03 10.85L1.03 10.85Q1.13 11.33 1.20 11.41L1.20 11.41L1.20 11.41Q1.27 11.49 1.68 11.64L1.68 11.64L1.68 11.64Q2.52 11.95 3.42 11.95L3.42 11.95L3.42 11.95Q4.20 11.95 4.74 11.49L4.74 11.49L4.74 11.49Q5.28 11.04 5.28 10.26L5.28 10.26L5.28 10.26Q5.28 9.65 4.82 9.21L4.82 9.21L4.82 9.21Q4.34 8.76 3.49 8.30L3.49 8.30L2.91 7.98L2.91 7.98Q2.17 7.55 1.93 7.36L1.93 7.36L1.93 7.36Q1.57 7.08 1.26 6.59L1.26 6.59L1.26 6.59Q0.95 6.10 0.95 5.46L0.95 5.46L0.95 5.46Q0.95 4.39 1.79 3.68L1.79 3.68L1.79 3.68Q2.63 2.97 3.74 2.97L3.74 2.97L3.74 2.97Q4.02 2.97 4.37 3.04L4.37 3.04L4.37 3.04Q4.57 3.08 4.90 3.17L4.90 3.17L5.14 3.25L5.14 3.25Q5.24 3.25 5.28 3.16L5.28 3.16L5.28 3.16Q5.33 3.05 5.33 2.98L5.33 2.98L5.35 2.88L5.82 2.85L6.04 5.41L5.53 5.43L5.41 4.18L5.41 4.18Q4.66 3.62 3.50 3.62L3.50 3.62L3.50 3.62Q2.86 3.62 2.35 4.05L2.35 4.05L2.35 4.05Q1.87 4.47 1.87 5.12L1.87 5.12L1.87 5.12Q1.87 5.72 2.32 6.17L2.32 6.17L2.32 6.17Q2.75 6.60 3.62 7.08L3.62 7.08L4.40 7.50L4.40 7.50Q5.35 8.03 5.88 8.59L5.88 8.59L5.88 8.59Q6.41 9.15 6.41 9.92L6.41 9.92L6.41 9.92Q6.41 10.99 5.56 11.76L5.56 11.76L5.56 11.76Q4.69 12.54 3.23 12.54L3.23 12.54L3.23 12.54Q2.67 12.54 2.17 12.41L2.17 12.41L2.17 12.41Q1.67 12.29 1.61 12.29L1.61 12.29L1.61 12.29Q1.36 12.29 1.36 12.58L1.36 12.58L1.37 12.76L0.90 12.80L0.90 12.80Q0.83 12.41 0.35 10.04ZM14.88 5.35L14.38 5.33L14.38 5.33Q14.50 4.17 14.58 3.08L14.58 3.08L22.66 3.08L22.66 3.08Q22.58 4.13 22.55 4.53L22.55 4.53L22.55 4.53Q22.51 5.26 22.49 5.32L22.49 5.32L21.99 5.30L21.99 5.30Q22.07 4.34 22.07 4.16L22.07 4.16L22.07 4.16Q22.07 3.88 21.93 3.79L21.93 3.79L21.93 3.79Q21.76 3.69 21.36 3.69L21.36 3.69L19.75 3.69L19.75 3.69Q19.24 3.69 19.12 3.79L19.12 3.79L19.12 3.79Q19.02 3.87 19.02 4.36L19.02 4.36L19.02 11.22L19.02 11.22Q19.02 11.66 19.16 11.76L19.16 11.76L19.16 11.76Q19.32 11.87 19.83 11.87L19.83 11.87L20.39 11.87L20.41 12.41L16.71 12.40L16.71 11.87L16.93 11.87L16.93 11.87Q17.60 11.87 17.75 11.79L17.75 11.79L17.75 11.79Q17.89 11.70 17.89 11.28L17.89 11.28L17.89 4.48L17.89 4.48Q17.89 3.92 17.79 3.80L17.79 3.80L17.79 3.80Q17.69 3.69 17.27 3.69L17.27 3.69L15.80 3.69L15.80 3.69Q15.61 3.69 15.54 3.71L15.54 3.71L15.54 3.71Q15.48 3.72 15.37 3.72L15.37 3.72L15.37 3.72Q15.34 3.72 15.22 3.79L15.22 3.79L15.22 3.79Q15.14 3.84 15.11 3.86L15.11 3.86L15.11 3.86Q15.09 3.88 15.05 3.99L15.05 3.99L15.05 3.99Q15.02 4.05 14.99 4.14L14.99 4.14L14.99 4.14Q14.96 4.21 14.94 4.36L14.94 4.36L14.94 4.36Q14.92 4.59 14.92 4.61L14.92 4.61L14.92 4.61Q14.92 4.80 14.90 4.95L14.90 4.95L14.90 4.95Q14.90 5.02 14.90 5.15L14.90 5.15L14.90 5.15Q14.89 5.29 14.88 5.35L14.88 5.35ZM30.78 7.83L30.78 7.83L30.78 7.83Q30.78 6.62 31.19 5.68L31.19 5.68L31.19 5.68Q31.60 4.72 32.29 4.12L32.29 4.12L32.29 4.12Q32.98 3.51 33.84 3.19L33.84 3.19L33.84 3.19Q34.69 2.88 35.64 2.88L35.64 2.88L35.64 2.88Q36.89 2.88 37.95 3.40L37.95 3.40L37.95 3.40Q39.03 3.93 39.74 5.07L39.74 5.07L39.74 5.07Q40.43 6.17 40.44 7.75L40.44 7.75L40.44 7.75Q40.44 8.70 40.13 9.54L40.13 9.54L40.13 9.54Q39.83 10.38 39.22 11.10L39.22 11.10L39.22 11.10Q38.62 11.81 37.68 12.22L37.68 12.22L37.68 12.22Q36.72 12.63 35.53 12.64L35.53 12.64L35.53 12.64Q34.39 12.64 33.46 12.23L33.46 12.23L33.46 12.23Q32.52 11.83 31.96 11.14L31.96 11.14L31.96 11.14Q31.38 10.45 31.09 9.60L31.09 9.60L31.09 9.60Q30.78 8.72 30.78 7.83ZM32.04 7.38L32.04 7.38L32.04 7.38Q32.04 8.52 32.47 9.60L32.47 9.60L32.47 9.60Q32.87 10.64 33.80 11.33L33.80 11.33L33.80 11.33Q34.71 12.03 35.90 12.04L35.90 12.04L35.90 12.04Q37.28 12.04 38.21 11.01L38.21 11.01L38.21 11.01Q39.16 9.97 39.16 8.10L39.16 8.10L39.16 8.10Q39.16 5.99 38.00 4.72L38.00 4.72L38.00 4.72Q36.85 3.46 35.34 3.45L35.34 3.45L35.34 3.45Q34.82 3.45 34.28 3.65L34.28 3.65L34.28 3.65Q33.74 3.85 33.23 4.25L33.23 4.25L33.23 4.25Q32.68 4.68 32.36 5.48L32.36 5.48L32.36 5.48Q32.04 6.27 32.04 7.38ZM48.89 3.64L48.50 3.64L48.51 3.08L51.73 3.08L51.73 3.08Q52.87 3.08 53.47 3.21L53.47 3.21L53.47 3.21Q54.11 3.37 54.58 3.75L54.58 3.75L54.58 3.75Q55.58 4.57 55.58 5.71L55.58 5.71L55.58 5.71Q55.58 6.43 55.11 7.04L55.11 7.04L55.11 7.04Q54.62 7.66 53.59 7.92L53.59 7.92L56.27 11.49L56.27 11.49Q56.58 11.87 56.88 11.87L56.88 11.87L57.48 11.87L57.50 12.41L55.47 12.41L52.48 8.10L52.31 8.10L52.31 8.10Q52.27 8.10 52.21 8.11L52.21 8.11L52.21 8.11Q52.16 8.11 52.14 8.11L52.14 8.11L52.14 8.11Q51.26 8.11 50.87 8.03L50.87 8.03L50.87 11.46L50.87 11.46Q50.87 11.76 51.01 11.81L51.01 11.81L51.01 11.81Q51.13 11.87 51.84 11.87L51.84 11.87L52.55 11.87L52.52 12.41L48.79 12.41L48.79 11.87L49.12 11.87L49.12 11.87Q49.58 11.87 49.65 11.81L49.65 11.81L49.65 11.81Q49.73 11.74 49.73 11.46L49.73 11.46L49.73 4.14L49.73 4.14Q49.73 3.82 49.54 3.73L49.54 3.73L49.54 3.73Q49.31 3.64 48.89 3.64L48.89 3.64ZM50.87 4.28L50.87 7.57L50.87 7.57Q51.05 7.70 51.76 7.71L51.76 7.71L51.76 7.71Q53.03 7.71 53.61 7.27L53.61 7.27L53.61 7.27Q54.20 6.84 54.20 5.92L54.20 5.92L54.20 5.92Q54.20 4.92 53.43 4.27L53.43 4.27L53.43 4.27Q52.67 3.64 51.29 3.64L51.29 3.64L51.29 3.64Q51.04 3.64 50.96 3.75L50.96 3.75L50.96 3.75Q50.87 3.84 50.87 4.28L50.87 4.28ZM65.27 3.64L65.26 3.08L72.47 3.08L72.47 3.08Q72.48 4.14 72.54 5.28L72.54 5.28L71.99 5.30L71.99 5.30Q71.98 4.66 71.92 4.25L71.92 4.25L71.92 4.25Q71.88 3.89 71.83 3.80L71.83 3.80L71.83 3.80Q71.77 3.71 71.65 3.69L71.65 3.69L71.65 3.69Q71.56 3.68 70.97 3.68L70.97 3.68L68.59 3.68L68.59 3.68Q68.04 3.68 67.90 3.77L67.90 3.77L67.90 3.77Q67.78 3.86 67.78 4.33L67.78 4.33L67.78 6.28L67.78 6.28Q67.78 6.69 67.83 6.76L67.83 6.76L67.83 6.76Q67.90 6.84 68.24 6.84L68.24 6.84L70.36 6.84L70.36 6.84Q70.72 6.84 70.80 6.73L70.80 6.73L70.80 6.73Q70.88 6.63 70.89 6.14L70.89 6.14L70.89 5.61L71.40 5.63L71.40 8.97L70.89 8.97L70.89 8.24L70.89 8.24Q70.89 7.66 70.81 7.57L70.81 7.57L70.81 7.57Q70.73 7.46 70.38 7.46L70.38 7.46L68.28 7.46L68.28 7.46Q67.95 7.46 67.86 7.54L67.86 7.54L67.86 7.54Q67.78 7.63 67.78 7.89L67.78 7.89L67.78 11.20L67.78 11.20Q67.78 11.57 67.86 11.67L67.86 11.67L67.86 11.67Q67.95 11.77 68.22 11.77L68.22 11.77L68.22 11.77Q71.14 11.75 71.67 11.69L71.67 11.69L71.67 11.69Q72.19 11.63 72.27 11.38L72.27 11.38L72.28 11.36L72.28 11.35L72.51 10.17L72.99 10.25L72.64 12.41L65.54 12.41L65.54 11.87L65.91 11.87L65.91 11.87Q66.47 11.87 66.55 11.80L66.55 11.80L66.55 11.80Q66.64 11.72 66.64 11.33L66.64 11.33L66.64 4.24L66.64 4.24Q66.64 3.82 66.49 3.73L66.49 3.73L66.49 3.73Q66.32 3.64 65.67 3.64L65.67 3.64L65.27 3.64ZM90.45 12.41L90.43 11.87L90.60 11.87L90.60 11.87Q90.99 11.87 91.12 11.73L91.12 11.73L91.12 11.73Q91.25 11.57 91.58 10.83L91.58 10.83L92.49 8.82L93.06 7.53L93.06 7.53Q93.33 6.97 93.37 6.86L93.37 6.86L93.37 6.86Q93.44 6.70 93.49 6.60L93.49 6.60L93.49 6.60Q93.54 6.51 93.56 6.45L93.56 6.45L93.65 6.21L95.08 2.74L95.38 2.74L95.38 2.74Q96.23 4.98 98.42 10.25L98.42 10.25L98.42 10.25Q98.87 11.34 99.06 11.64L99.06 11.64L99.06 11.64Q99.20 11.87 99.63 11.87L99.63 11.87L99.85 11.87L99.83 12.41L96.64 12.41L96.65 11.87L97.07 11.87L97.07 11.87Q97.69 11.87 97.69 11.70L97.69 11.70L97.69 11.70Q97.69 11.63 97.55 11.27L97.55 11.27L96.51 8.72L93.26 8.72L92.16 11.18L92.16 11.18Q92.02 11.50 92.02 11.63L92.02 11.63L92.02 11.63Q92.02 11.79 92.11 11.83L92.11 11.83L92.11 11.83Q92.21 11.87 92.59 11.87L92.59 11.87L93.17 11.87L93.17 12.41L90.45 12.41ZM94.94 4.79L93.53 8.10L96.27 8.10L94.94 4.79ZM108.07 3.64L107.58 3.64L107.59 3.08L111.18 3.08L111.18 3.64L110.54 3.64L110.54 3.64Q110.17 3.64 110.06 3.72L110.06 3.72L110.06 3.72Q109.94 3.80 109.94 4.16L109.94 4.16L109.94 11.22L109.94 11.22Q109.94 11.57 110.03 11.67L110.03 11.67L110.03 11.67Q110.11 11.77 110.41 11.77L110.41 11.77L110.41 11.77Q113.28 11.74 113.93 11.63L113.93 11.63L113.93 11.63Q114.15 11.61 114.23 11.39L114.23 11.39L114.23 11.39Q114.31 11.17 114.51 10.05L114.51 10.05L115.00 10.08L114.54 12.41L107.78 12.41L107.76 11.87L108.15 11.87L108.15 11.87Q108.66 11.87 108.73 11.80L108.73 11.80L108.73 11.80Q108.81 11.72 108.81 11.33L108.81 11.33L108.81 4.09L108.81 4.09Q108.81 3.80 108.66 3.72L108.66 3.72L108.66 3.72Q108.51 3.64 108.07 3.64L108.07 3.64ZM123.22 3.64L122.73 3.64L122.75 3.08L126.33 3.08L126.33 3.64L125.70 3.64L125.70 3.64Q125.32 3.64 125.21 3.72L125.21 3.72L125.21 3.72Q125.10 3.80 125.10 4.16L125.10 4.16L125.10 11.22L125.10 11.22Q125.10 11.57 125.18 11.67L125.18 11.67L125.18 11.67Q125.27 11.77 125.56 11.77L125.56 11.77L125.56 11.77Q128.43 11.74 129.09 11.63L129.09 11.63L129.09 11.63Q129.30 11.61 129.38 11.39L129.38 11.39L129.38 11.39Q129.47 11.17 129.66 10.05L129.66 10.05L130.16 10.08L129.69 12.41L122.93 12.41L122.92 11.87L123.31 11.87L123.31 11.87Q123.81 11.87 123.88 11.80L123.88 11.80L123.88 11.80Q123.96 11.72 123.97 11.33L123.97 11.33L123.97 4.09L123.97 4.09Q123.97 3.80 123.81 3.72L123.81 3.72L123.81 3.72Q123.66 3.64 123.22 3.64L123.22 3.64ZM147.60 3.64L147.60 3.64L147.62 3.08L150.75 3.08L150.75 3.64L150.47 3.64L150.47 3.64Q150.02 3.64 149.91 3.66L149.91 3.66L149.91 3.66Q149.74 3.71 149.74 3.82L149.74 3.82L149.74 3.82Q149.74 3.89 149.99 4.31L149.99 4.31L152.00 7.46L154.44 3.99L154.44 3.99Q154.53 3.83 154.53 3.82L154.53 3.82L154.53 3.82Q154.53 3.64 153.62 3.64L153.62 3.64L153.40 3.64L153.38 3.08L155.93 3.08L155.93 3.64L155.86 3.64L155.86 3.64Q155.51 3.64 155.37 3.72L155.37 3.72L155.37 3.72Q155.21 3.80 154.92 4.22L154.92 4.22L152.20 8.17L152.20 11.22L152.20 11.22Q152.20 11.66 152.30 11.77L152.30 11.77L152.30 11.77Q152.40 11.87 153.02 11.87L153.02 11.87L153.65 11.87L153.63 12.41L149.70 12.41L149.71 11.87L150.27 11.87L150.27 11.87Q150.81 11.87 150.93 11.79L150.93 11.79L150.93 11.79Q151.06 11.70 151.06 11.25L151.06 11.25L151.06 8.06L148.76 4.49L148.76 4.49Q148.35 3.84 148.22 3.73L148.22 3.73L148.22 3.73Q148.11 3.64 147.60 3.64ZM164.05 7.83L164.05 7.83L164.05 7.83Q164.05 6.62 164.45 5.68L164.45 5.68L164.45 5.68Q164.87 4.72 165.56 4.12L165.56 4.12L165.56 4.12Q166.25 3.51 167.11 3.19L167.11 3.19L167.11 3.19Q167.95 2.88 168.90 2.88L168.90 2.88L168.90 2.88Q170.16 2.88 171.21 3.40L171.21 3.40L171.21 3.40Q172.29 3.93 173.00 5.07L173.00 5.07L173.00 5.07Q173.70 6.17 173.71 7.75L173.71 7.75L173.71 7.75Q173.71 8.70 173.40 9.54L173.40 9.54L173.40 9.54Q173.09 10.38 172.49 11.10L172.49 11.10L172.49 11.10Q171.88 11.81 170.95 12.22L170.95 12.22L170.95 12.22Q169.98 12.63 168.79 12.64L168.79 12.64L168.79 12.64Q167.66 12.64 166.72 12.23L166.72 12.23L166.72 12.23Q165.79 11.83 165.22 11.14L165.22 11.14L165.22 11.14Q164.65 10.45 164.36 9.60L164.36 9.60L164.36 9.60Q164.05 8.72 164.05 7.83ZM165.31 7.38L165.31 7.38L165.31 7.38Q165.31 8.52 165.74 9.60L165.74 9.60L165.74 9.60Q166.14 10.64 167.07 11.33L167.07 11.33L167.07 11.33Q167.98 12.03 169.17 12.04L169.17 12.04L169.17 12.04Q170.54 12.04 171.48 11.01L171.48 11.01L171.48 11.01Q172.43 9.97 172.43 8.10L172.43 8.10L172.43 8.10Q172.43 5.99 171.27 4.72L171.27 4.72L171.27 4.72Q170.12 3.46 168.61 3.45L168.61 3.45L168.61 3.45Q168.09 3.45 167.55 3.65L167.55 3.65L167.55 3.65Q167.00 3.85 166.50 4.25L166.50 4.25L166.50 4.25Q165.95 4.68 165.63 5.48L165.63 5.48L165.63 5.48Q165.31 6.27 165.31 7.38ZM182.21 3.64L181.82 3.64L181.82 3.08L185.19 3.08L185.20 3.64L184.67 3.64L184.67 3.64Q184.24 3.64 184.08 3.73L184.08 3.73L184.08 3.73Q183.91 3.83 183.91 4.16L183.91 4.16L183.91 9.33L183.91 9.33Q183.91 9.63 183.94 9.78L183.94 9.78L183.94 9.78Q183.98 10.01 184.15 10.41L184.15 10.41L184.15 10.41Q184.32 10.80 184.61 11.09L184.61 11.09L184.61 11.09Q184.92 11.40 185.48 11.63L185.48 11.63L185.48 11.63Q186.05 11.85 186.83 11.85L186.83 11.85L186.83 11.85Q187.69 11.85 188.23 11.67L188.23 11.67L188.23 11.67Q188.79 11.48 189.10 11.22L189.10 11.22L189.10 11.22Q189.41 10.96 189.55 10.49L189.55 10.49L189.55 10.49Q189.72 9.95 189.73 9.66L189.73 9.66L189.73 9.66Q189.76 9.18 189.77 8.67L189.77 8.67L189.77 4.14L189.77 4.14Q189.77 3.81 189.62 3.72L189.62 3.72L189.62 3.72Q189.47 3.64 188.99 3.64L188.99 3.64L188.50 3.64L188.53 3.08L191.16 3.08L191.16 3.64L190.97 3.64L190.97 3.64Q190.65 3.64 190.53 3.75L190.53 3.75L190.53 3.75Q190.42 3.86 190.42 4.25L190.42 4.25L190.42 9.22L190.42 9.22Q190.42 12.67 186.83 12.67L186.83 12.67L186.83 12.67Q184.67 12.67 183.72 11.76L183.72 11.76L183.72 11.76Q182.78 10.86 182.78 9.41L182.78 9.41L182.78 4.14L182.78 4.14Q182.78 3.81 182.68 3.72L182.68 3.72L182.68 3.72Q182.57 3.64 182.21 3.64L182.21 3.64ZM199.23 3.64L198.84 3.64L198.86 3.08L202.08 3.08L202.08 3.08Q203.21 3.08 203.81 3.21L203.81 3.21L203.81 3.21Q204.46 3.37 204.92 3.75L204.92 3.75L204.92 3.75Q205.93 4.57 205.93 5.71L205.93 5.71L205.93 5.71Q205.93 6.43 205.45 7.04L205.45 7.04L205.45 7.04Q204.96 7.66 203.93 7.92L203.93 7.92L206.62 11.49L206.62 11.49Q206.92 11.87 207.22 11.87L207.22 11.87L207.82 11.87L207.85 12.41L205.82 12.41L202.82 8.10L202.65 8.10L202.65 8.10Q202.61 8.10 202.56 8.11L202.56 8.11L202.56 8.11Q202.50 8.11 202.49 8.11L202.49 8.11L202.49 8.11Q201.61 8.11 201.21 8.03L201.21 8.03L201.21 11.46L201.21 11.46Q201.21 11.76 201.35 11.81L201.35 11.81L201.35 11.81Q201.48 11.87 202.18 11.87L202.18 11.87L202.89 11.87L202.86 12.41L199.14 12.41L199.14 11.87L199.46 11.87L199.46 11.87Q199.92 11.87 199.99 11.81L199.99 11.81L199.99 11.81Q200.07 11.74 200.07 11.46L200.07 11.46L200.07 4.14L200.07 4.14Q200.07 3.82 199.88 3.73L199.88 3.73L199.88 3.73Q199.66 3.64 199.23 3.64L199.23 3.64ZM201.21 4.28L201.21 7.57L201.21 7.57Q201.39 7.70 202.10 7.71L202.10 7.71L202.10 7.71Q203.38 7.71 203.96 7.27L203.96 7.27L203.96 7.27Q204.54 6.84 204.54 5.92L204.54 5.92L204.54 5.92Q204.54 4.92 203.77 4.27L203.77 4.27L203.77 4.27Q203.01 3.64 201.63 3.64L201.63 3.64L201.63 3.64Q201.38 3.64 201.30 3.75L201.30 3.75L201.30 3.75Q201.22 3.84 201.21 4.28L201.21 4.28ZM225.55 8.02L225.55 8.02L225.55 8.02Q225.55 6.86 226.02 5.83L226.02 5.83L226.02 5.83Q226.49 4.85 227.24 4.27L227.24 4.27L227.24 4.27Q227.99 3.69 228.88 3.37L228.88 3.37L228.88 3.37Q229.78 3.05 230.62 3.05L230.62 3.05L230.62 3.05Q231.49 3.05 232.16 3.16L232.16 3.16L232.16 3.16Q232.78 3.26 233.08 3.37L233.08 3.37L233.08 3.37Q233.39 3.48 233.42 3.48L233.42 3.48L233.42 3.48Q233.59 3.48 233.61 3.41L233.61 3.41L233.61 3.41Q233.64 3.33 233.64 3.09L233.64 3.09L233.64 2.97L234.17 2.97L234.17 2.97Q234.21 4.30 234.34 5.64L234.34 5.64L233.84 5.65L233.84 5.65Q233.81 5.40 233.80 5.26L233.80 5.26L233.80 5.26Q233.80 5.20 233.79 5.13L233.79 5.13L233.79 5.13Q233.78 5.07 233.78 5.02L233.78 5.02L233.78 5.02Q233.77 4.98 233.77 4.95L233.77 4.95L233.77 4.95Q233.74 4.84 233.74 4.74L233.74 4.74L233.74 4.74Q233.74 4.68 233.70 4.59L233.70 4.59L233.70 4.59Q233.70 4.57 233.67 4.55L233.67 4.55L233.67 4.55Q233.64 4.52 233.64 4.50L233.64 4.50L233.64 4.50Q233.61 4.44 233.54 4.41L233.54 4.41L233.54 4.41Q233.50 4.38 233.47 4.37L233.47 4.37L233.47 4.37Q233.45 4.36 233.42 4.35L233.42 4.35L233.42 4.35Q233.41 4.35 233.38 4.33L233.38 4.33L233.38 4.33Q233.36 4.31 233.32 4.29L233.32 4.29L233.32 4.29Q233.28 4.27 233.24 4.25L233.24 4.25L233.24 4.25Q233.01 4.16 232.98 4.14L232.98 4.14L232.98 4.14Q232.63 3.96 231.99 3.83L231.99 3.83L231.99 3.83Q231.32 3.71 230.66 3.71L230.66 3.71L230.66 3.71Q228.94 3.71 227.84 4.84L227.84 4.84L227.84 4.84Q226.73 5.99 226.74 7.62L226.74 7.62L226.74 7.62Q226.74 9.35 227.96 10.69L227.96 10.69L227.96 10.69Q229.16 12.02 230.98 12.02L230.98 12.02L230.98 12.02Q231.98 12.02 232.93 11.49L232.93 11.49L232.93 11.49Q233.88 10.94 233.91 10.58L233.91 10.58L233.95 9.41L234.44 9.41L234.36 11.45L234.36 11.45Q234.29 11.49 234.16 11.57L234.16 11.57L234.16 11.57Q234.10 11.60 233.64 11.85L233.64 11.85L233.64 11.85Q233.26 12.05 232.82 12.23L232.82 12.23L232.82 12.23Q232.46 12.39 231.81 12.51L231.81 12.51L231.81 12.51Q231.20 12.63 230.63 12.64L230.63 12.64L230.63 12.64Q228.25 12.64 226.89 11.39L226.89 11.39L226.89 11.39Q225.55 10.14 225.55 8.02ZM242.48 12.41L242.47 11.87L242.64 11.87L242.64 11.87Q243.03 11.87 243.16 11.73L243.16 11.73L243.16 11.73Q243.28 11.57 243.62 10.83L243.62 10.83L244.53 8.82L245.10 7.53L245.10 7.53Q245.37 6.97 245.41 6.86L245.41 6.86L245.41 6.86Q245.48 6.70 245.53 6.60L245.53 6.60L245.53 6.60Q245.58 6.51 245.59 6.45L245.59 6.45L245.69 6.21L247.12 2.74L247.41 2.74L247.41 2.74Q248.27 4.98 250.46 10.25L250.46 10.25L250.46 10.25Q250.91 11.34 251.10 11.64L251.10 11.64L251.10 11.64Q251.23 11.87 251.67 11.87L251.67 11.87L251.88 11.87L251.87 12.41L248.68 12.41L248.69 11.87L249.11 11.87L249.11 11.87Q249.72 11.87 249.72 11.70L249.72 11.70L249.72 11.70Q249.72 11.63 249.59 11.27L249.59 11.27L248.55 8.72L245.30 8.72L244.19 11.18L244.19 11.18Q244.06 11.50 244.06 11.63L244.06 11.63L244.06 11.63Q244.06 11.79 244.15 11.83L244.15 11.83L244.15 11.83Q244.25 11.87 244.63 11.87L244.63 11.87L245.21 11.87L245.21 12.41L242.48 12.41ZM246.98 4.79L245.57 8.10L248.31 8.10L246.98 4.79ZM259.95 3.64L259.56 3.64L259.57 3.08L262.79 3.08L262.79 3.08Q263.93 3.08 264.53 3.21L264.53 3.21L264.53 3.21Q265.17 3.37 265.64 3.75L265.64 3.75L265.64 3.75Q266.64 4.57 266.64 5.71L266.64 5.71L266.64 5.71Q266.64 6.43 266.17 7.04L266.17 7.04L266.17 7.04Q265.68 7.66 264.65 7.92L264.65 7.92L267.33 11.49L267.33 11.49Q267.64 11.87 267.93 11.87L267.93 11.87L268.54 11.87L268.56 12.41L266.53 12.41L263.54 8.10L263.37 8.10L263.37 8.10Q263.33 8.10 263.27 8.11L263.27 8.11L263.27 8.11Q263.22 8.11 263.20 8.11L263.20 8.11L263.20 8.11Q262.32 8.11 261.93 8.03L261.93 8.03L261.93 11.46L261.93 11.46Q261.93 11.76 262.07 11.81L262.07 11.81L262.07 11.81Q262.19 11.87 262.90 11.87L262.90 11.87L263.61 11.87L263.58 12.41L259.85 12.41L259.85 11.87L260.18 11.87L260.18 11.87Q260.64 11.87 260.71 11.81L260.71 11.81L260.71 11.81Q260.79 11.74 260.79 11.46L260.79 11.46L260.79 4.14L260.79 4.14Q260.79 3.82 260.60 3.73L260.60 3.73L260.60 3.73Q260.37 3.64 259.95 3.64L259.95 3.64ZM261.93 4.28L261.93 7.57L261.93 7.57Q262.11 7.70 262.82 7.71L262.82 7.71L262.82 7.71Q264.09 7.71 264.67 7.27L264.67 7.27L264.67 7.27Q265.26 6.84 265.26 5.92L265.26 5.92L265.26 5.92Q265.26 4.92 264.49 4.27L264.49 4.27L264.49 4.27Q263.73 3.64 262.35 3.64L262.35 3.64L262.35 3.64Q262.10 3.64 262.01 3.75L262.01 3.75L262.01 3.75Q261.93 3.84 261.93 4.28L261.93 4.28ZM276.36 3.64L276.32 3.08L280.10 3.08L280.10 3.08Q281.42 3.08 282.28 3.19L282.28 3.19L282.28 3.19Q283.10 3.29 283.79 3.69L283.79 3.69L283.79 3.69Q284.74 4.27 285.25 5.24L285.25 5.24L285.25 5.24Q285.74 6.21 285.74 7.39L285.74 7.39L285.74 7.39Q285.74 8.05 285.60 8.65L285.60 8.65L285.60 8.65Q285.44 9.29 285.05 9.98L285.05 9.98L285.05 9.98Q284.62 10.73 284.06 11.21L284.06 11.21L284.06 11.21Q283.43 11.76 282.46 12.08L282.46 12.08L282.46 12.08Q281.46 12.41 280.18 12.41L280.18 12.41L276.57 12.41L276.55 11.87L276.93 11.87L276.93 11.87Q277.45 11.87 277.55 11.79L277.55 11.79L277.55 11.79Q277.66 11.70 277.66 11.25L277.66 11.25L277.66 4.14L277.66 4.14Q277.66 3.77 277.57 3.71L277.57 3.71L277.57 3.71Q277.46 3.64 276.94 3.64L276.94 3.64L276.36 3.64ZM278.80 4.39L278.80 11.22L278.80 11.22Q278.80 11.67 278.96 11.77L278.96 11.77L278.96 11.77Q279.12 11.87 279.99 11.87L279.99 11.87L279.99 11.87Q281.04 11.87 281.83 11.61L281.83 11.61L281.83 11.61Q282.69 11.35 283.12 10.99L283.12 10.99L283.12 10.99Q283.62 10.58 283.92 10.05L283.92 10.05L283.92 10.05Q284.22 9.52 284.35 8.96L284.35 8.96L284.35 8.96Q284.48 8.41 284.48 7.82L284.48 7.82L284.48 7.82Q284.48 7.03 284.21 6.34L284.21 6.34L284.21 6.34Q283.94 5.65 283.42 5.05L283.42 5.05L283.42 5.05Q282.88 4.46 281.98 4.09L281.98 4.09L281.98 4.09Q281.05 3.73 279.89 3.73L279.89 3.73L279.37 3.73L279.37 3.73Q279.01 3.73 278.91 3.85L278.91 3.85L278.91 3.85Q278.80 3.99 278.80 4.39L278.80 4.39ZM293.69 10.04L293.69 10.04L294.18 9.98L294.36 10.85L294.36 10.85Q294.47 11.33 294.54 11.41L294.54 11.41L294.54 11.41Q294.61 11.49 295.02 11.64L295.02 11.64L295.02 11.64Q295.86 11.95 296.75 11.95L296.75 11.95L296.75 11.95Q297.54 11.95 298.08 11.49L298.08 11.49L298.08 11.49Q298.61 11.04 298.61 10.26L298.61 10.26L298.61 10.26Q298.61 9.65 298.16 9.21L298.16 9.21L298.16 9.21Q297.68 8.76 296.82 8.30L296.82 8.30L296.25 7.98L296.25 7.98Q295.50 7.55 295.27 7.36L295.27 7.36L295.27 7.36Q294.91 7.08 294.60 6.59L294.60 6.59L294.60 6.59Q294.29 6.10 294.29 5.46L294.29 5.46L294.29 5.46Q294.29 4.39 295.13 3.68L295.13 3.68L295.13 3.68Q295.97 2.97 297.08 2.97L297.08 2.97L297.08 2.97Q297.36 2.97 297.71 3.04L297.71 3.04L297.71 3.04Q297.90 3.08 298.24 3.17L298.24 3.17L298.48 3.25L298.48 3.25Q298.57 3.25 298.61 3.16L298.61 3.16L298.61 3.16Q298.67 3.05 298.67 2.98L298.67 2.98L298.68 2.88L299.16 2.85L299.37 5.41L298.87 5.43L298.74 4.18L298.74 4.18Q298.00 3.62 296.84 3.62L296.84 3.62L296.84 3.62Q296.19 3.62 295.69 4.05L295.69 4.05L295.69 4.05Q295.21 4.47 295.21 5.12L295.21 5.12L295.21 5.12Q295.21 5.72 295.66 6.17L295.66 6.17L295.66 6.17Q296.09 6.60 296.96 7.08L296.96 7.08L297.73 7.50L297.73 7.50Q298.68 8.03 299.22 8.59L299.22 8.59L299.22 8.59Q299.75 9.15 299.75 9.92L299.75 9.92L299.75 9.92Q299.75 10.99 298.89 11.76L298.89 11.76L298.89 11.76Q298.03 12.54 296.57 12.54L296.57 12.54L296.57 12.54Q296.01 12.54 295.51 12.41L295.51 12.41L295.51 12.41Q295.00 12.29 294.95 12.29L294.95 12.29L294.95 12.29Q294.70 12.29 294.70 12.58L294.70 12.58L294.71 12.76L294.23 12.80L294.23 12.80Q294.17 12.41 293.69 10.04ZM318.09 3.64L317.50 3.64L317.52 3.08L321.03 3.08L321.03 3.64L320.80 3.64L320.80 3.64Q320.25 3.64 320.08 3.73L320.08 3.73L320.08 3.73Q319.94 3.81 319.94 4.28L319.94 4.28L319.94 11.22L319.94 11.22Q319.94 11.68 320.05 11.77L320.05 11.77L320.05 11.77Q320.16 11.87 320.69 11.87L320.69 11.87L321.24 11.87L321.25 12.41L317.67 12.41L317.66 11.87L318.02 11.87L318.02 11.87Q318.58 11.87 318.69 11.77L318.69 11.77L318.69 11.77Q318.81 11.67 318.81 11.25L318.81 11.25L318.81 4.14L318.81 4.14Q318.81 3.77 318.71 3.71L318.71 3.71L318.71 3.71Q318.60 3.64 318.09 3.64L318.09 3.64ZM329.01 3.64L328.99 3.08L331.17 3.08L336.90 10.48L336.90 4.14L336.90 4.14Q336.90 3.81 336.75 3.72L336.75 3.72L336.75 3.72Q336.59 3.64 336.14 3.64L336.14 3.64L335.64 3.64L335.67 3.08L338.65 3.08L338.65 3.64L338.33 3.64L338.33 3.64Q337.87 3.64 337.72 3.75L337.72 3.75L337.72 3.75Q337.57 3.86 337.57 4.25L337.57 4.25L337.57 12.32L337.57 12.47L337.57 12.47Q337.57 12.52 337.55 12.57L337.55 12.57L337.55 12.57Q337.54 12.61 337.50 12.64L337.50 12.64L337.50 12.64Q337.49 12.65 337.44 12.65L337.44 12.65L337.24 12.65L337.18 12.65L337.16 12.65L337.13 12.64L337.13 12.64Q337.10 12.64 337.09 12.63L337.09 12.63L337.09 12.63Q337.07 12.61 337.07 12.60L337.07 12.60L337.07 12.60Q337.07 12.58 337.06 12.57L337.06 12.57L337.06 12.57Q337.03 12.54 337.00 12.50L337.00 12.50L337.00 12.50Q336.99 12.48 336.97 12.45L336.97 12.45L336.97 12.45Q336.95 12.41 336.94 12.40L336.94 12.40L330.83 4.56L330.90 11.22L330.90 11.22Q330.90 11.67 331.06 11.77L331.06 11.77L331.06 11.77Q331.22 11.87 331.93 11.87L331.93 11.87L332.17 11.87L332.17 12.41L329.23 12.41L329.23 11.87L329.66 11.87L329.66 11.87Q330.03 11.87 330.14 11.76L330.14 11.76L330.14 11.76Q330.24 11.66 330.24 11.25L330.24 11.25L330.24 3.80L330.10 3.64L329.01 3.64ZM356.34 7.83L356.34 7.83L356.34 7.83Q356.34 6.62 356.75 5.68L356.75 5.68L356.75 5.68Q357.16 4.72 357.85 4.12L357.85 4.12L357.85 4.12Q358.54 3.51 359.41 3.19L359.41 3.19L359.41 3.19Q360.25 2.88 361.20 2.88L361.20 2.88L361.20 2.88Q362.46 2.88 363.51 3.40L363.51 3.40L363.51 3.40Q364.59 3.93 365.30 5.07L365.30 5.07L365.30 5.07Q366.00 6.17 366.00 7.75L366.00 7.75L366.00 7.75Q366.00 8.70 365.70 9.54L365.70 9.54L365.70 9.54Q365.39 10.38 364.78 11.10L364.78 11.10L364.78 11.10Q364.18 11.81 363.24 12.22L363.24 12.22L363.24 12.22Q362.28 12.63 361.09 12.64L361.09 12.64L361.09 12.64Q359.95 12.64 359.02 12.23L359.02 12.23L359.02 12.23Q358.08 11.83 357.52 11.14L357.52 11.14L357.52 11.14Q356.95 10.45 356.65 9.60L356.65 9.60L356.65 9.60Q356.34 8.72 356.34 7.83ZM357.60 7.38L357.60 7.38L357.60 7.38Q357.60 8.52 358.03 9.60L358.03 9.60L358.03 9.60Q358.44 10.64 359.37 11.33L359.37 11.33L359.37 11.33Q360.27 12.03 361.46 12.04L361.46 12.04L361.46 12.04Q362.84 12.04 363.77 11.01L363.77 11.01L363.77 11.01Q364.72 9.97 364.72 8.10L364.72 8.10L364.72 8.10Q364.72 5.99 363.56 4.72L363.56 4.72L363.56 4.72Q362.41 3.46 360.90 3.45L360.90 3.45L360.90 3.45Q360.38 3.45 359.84 3.65L359.84 3.65L359.84 3.65Q359.30 3.85 358.79 4.25L358.79 4.25L358.79 4.25Q358.24 4.68 357.92 5.48L357.92 5.48L357.92 5.48Q357.60 6.27 357.60 7.38ZM374.13 3.64L374.12 3.08L376.29 3.08L382.03 10.48L382.03 4.14L382.03 4.14Q382.03 3.81 381.87 3.72L381.87 3.72L381.87 3.72Q381.72 3.64 381.26 3.64L381.26 3.64L380.77 3.64L380.80 3.08L383.78 3.08L383.78 3.64L383.46 3.64L383.46 3.64Q382.99 3.64 382.84 3.75L382.84 3.75L382.84 3.75Q382.69 3.86 382.69 4.25L382.69 4.25L382.69 12.32L382.69 12.47L382.69 12.47Q382.69 12.52 382.68 12.57L382.68 12.57L382.68 12.57Q382.66 12.61 382.63 12.64L382.63 12.64L382.63 12.64Q382.61 12.65 382.56 12.65L382.56 12.65L382.37 12.65L382.31 12.65L382.28 12.65L382.25 12.64L382.25 12.64Q382.22 12.64 382.21 12.63L382.21 12.63L382.21 12.63Q382.20 12.61 382.20 12.60L382.20 12.60L382.20 12.60Q382.20 12.58 382.18 12.57L382.18 12.57L382.18 12.57Q382.16 12.54 382.13 12.50L382.13 12.50L382.13 12.50Q382.12 12.48 382.09 12.45L382.09 12.45L382.09 12.45Q382.07 12.41 382.06 12.40L382.06 12.40L375.96 4.56L376.02 11.22L376.02 11.22Q376.02 11.67 376.19 11.77L376.19 11.77L376.19 11.77Q376.35 11.87 377.06 11.87L377.06 11.87L377.30 11.87L377.30 12.41L374.36 12.41L374.36 11.87L374.78 11.87L374.78 11.87Q375.16 11.87 375.27 11.76L375.27 11.76L375.27 11.76Q375.36 11.66 375.37 11.25L375.37 11.25L375.37 3.80L375.22 3.64L374.13 3.64ZM391.53 3.64L391.51 3.08L398.73 3.08L398.73 3.08Q398.74 4.14 398.79 5.28L398.79 5.28L398.25 5.30L398.25 5.30Q398.23 4.66 398.18 4.25L398.18 4.25L398.18 4.25Q398.14 3.89 398.08 3.80L398.08 3.80L398.08 3.80Q398.03 3.71 397.91 3.69L397.91 3.69L397.91 3.69Q397.82 3.68 397.23 3.68L397.23 3.68L394.85 3.68L394.85 3.68Q394.30 3.68 394.16 3.77L394.16 3.77L394.16 3.77Q394.04 3.86 394.04 4.33L394.04 4.33L394.04 6.28L394.04 6.28Q394.04 6.69 394.09 6.76L394.09 6.76L394.09 6.76Q394.16 6.84 394.50 6.84L394.50 6.84L396.61 6.84L396.61 6.84Q396.98 6.84 397.06 6.73L397.06 6.73L397.06 6.73Q397.14 6.63 397.15 6.14L397.15 6.14L397.15 5.61L397.66 5.63L397.66 8.97L397.15 8.97L397.15 8.24L397.15 8.24Q397.15 7.66 397.07 7.57L397.07 7.57L397.07 7.57Q396.99 7.46 396.64 7.46L396.64 7.46L394.54 7.46L394.54 7.46Q394.21 7.46 394.12 7.54L394.12 7.54L394.12 7.54Q394.04 7.63 394.04 7.89L394.04 7.89L394.04 11.20L394.04 11.20Q394.04 11.57 394.12 11.67L394.12 11.67L394.12 11.67Q394.21 11.77 394.48 11.77L394.48 11.77L394.48 11.77Q397.40 11.75 397.93 11.69L397.93 11.69L397.93 11.69Q398.45 11.63 398.53 11.38L398.53 11.38L398.54 11.36L398.54 11.35L398.77 10.17L399.25 10.25L398.90 12.41L391.79 12.41L391.79 11.87L392.16 11.87L392.16 11.87Q392.72 11.87 392.81 11.80L392.81 11.80L392.81 11.80Q392.90 11.72 392.90 11.33L392.90 11.33L392.90 4.24L392.90 4.24Q392.90 3.82 392.75 3.73L392.75 3.73L392.75 3.73Q392.58 3.64 391.92 3.64L391.92 3.64L391.53 3.64ZM420.42 12.41L416.69 12.41L416.69 11.87L417.13 11.87L417.13 11.87Q417.50 11.87 417.56 11.81L417.56 11.81L417.56 11.81Q417.63 11.74 417.63 11.46L417.63 11.46L417.63 4.14L417.63 4.14Q417.63 3.81 417.55 3.72L417.55 3.72L417.55 3.72Q417.46 3.64 417.10 3.64L417.10 3.64L416.73 3.64L416.75 3.08L419.63 3.08L419.63 3.08Q420.78 3.08 421.43 3.19L421.43 3.19L421.43 3.19Q422.03 3.28 422.50 3.68L422.50 3.68L422.50 3.68Q423.69 4.64 423.69 6.19L423.69 6.19L423.69 6.19Q423.69 7.23 422.93 7.98L422.93 7.98L422.93 7.98Q422.15 8.74 420.74 8.73L420.74 8.73L420.74 8.73Q420.57 8.73 420.15 8.70L420.15 8.70L420.15 8.70Q420.04 8.69 419.62 8.62L419.62 8.62L419.62 8.62Q419.28 8.55 419.19 8.54L419.19 8.54L419.19 8.54Q418.89 8.47 418.88 8.46L418.88 8.46L418.76 8.44L418.76 11.46L418.76 11.46Q418.76 11.74 418.89 11.81L418.89 11.81L418.89 11.81Q419.00 11.87 419.72 11.87L419.72 11.87L420.42 11.87L420.42 12.41ZM418.76 4.28L418.76 8.02L418.76 8.02Q419.11 8.29 420.08 8.29L420.08 8.29L420.08 8.29Q421.22 8.29 421.79 7.75L421.79 7.75L421.79 7.75Q422.38 7.21 422.38 6.16L422.38 6.16L422.38 6.16Q422.38 4.98 421.47 4.31L421.47 4.31L421.47 4.31Q420.57 3.64 419.19 3.64L419.19 3.64L419.19 3.64Q418.93 3.64 418.85 3.75L418.85 3.75L418.85 3.75Q418.77 3.84 418.76 4.28L418.76 4.28ZM432.16 3.64L431.67 3.64L431.68 3.08L435.27 3.08L435.27 3.64L434.64 3.64L434.64 3.64Q434.26 3.64 434.15 3.72L434.15 3.72L434.15 3.72Q434.03 3.80 434.03 4.16L434.03 4.16L434.03 11.22L434.03 11.22Q434.03 11.57 434.12 11.67L434.12 11.67L434.12 11.67Q434.21 11.77 434.50 11.77L434.50 11.77L434.50 11.77Q437.37 11.74 438.03 11.63L438.03 11.63L438.03 11.63Q438.24 11.61 438.32 11.39L438.32 11.39L438.32 11.39Q438.40 11.17 438.60 10.05L438.60 10.05L439.09 10.08L438.63 12.41L431.87 12.41L431.85 11.87L432.24 11.87L432.24 11.87Q432.75 11.87 432.82 11.80L432.82 11.80L432.82 11.80Q432.90 11.72 432.91 11.33L432.91 11.33L432.91 4.09L432.91 4.09Q432.91 3.80 432.75 3.72L432.75 3.72L432.75 3.72Q432.60 3.64 432.16 3.64L432.16 3.64ZM446.84 12.41L446.82 11.87L447.00 11.87L447.00 11.87Q447.38 11.87 447.51 11.73L447.51 11.73L447.51 11.73Q447.64 11.57 447.97 10.83L447.97 10.83L448.88 8.82L449.46 7.53L449.46 7.53Q449.72 6.97 449.76 6.86L449.76 6.86L449.76 6.86Q449.83 6.70 449.88 6.60L449.88 6.60L449.88 6.60Q449.93 6.51 449.95 6.45L449.95 6.45L450.04 6.21L451.47 2.74L451.77 2.74L451.77 2.74Q452.62 4.98 454.81 10.25L454.81 10.25L454.81 10.25Q455.26 11.34 455.45 11.64L455.45 11.64L455.45 11.64Q455.59 11.87 456.03 11.87L456.03 11.87L456.24 11.87L456.22 12.41L453.03 12.41L453.04 11.87L453.46 11.87L453.46 11.87Q454.08 11.87 454.08 11.70L454.08 11.70L454.08 11.70Q454.08 11.63 453.94 11.27L453.94 11.27L452.90 8.72L449.65 8.72L448.55 11.18L448.55 11.18Q448.41 11.50 448.41 11.63L448.41 11.63L448.41 11.63Q448.41 11.79 448.51 11.83L448.51 11.83L448.51 11.83Q448.60 11.87 448.98 11.87L448.98 11.87L449.56 11.87L449.56 12.41L446.84 12.41ZM451.34 4.79L449.92 8.10L452.66 8.10L451.34 4.79ZM464.35 8.02L464.35 8.02L464.35 8.02Q464.35 6.86 464.82 5.83L464.82 5.83L464.82 5.83Q465.29 4.85 466.04 4.27L466.04 4.27L466.04 4.27Q466.79 3.69 467.68 3.37L467.68 3.37L467.68 3.37Q468.58 3.05 469.42 3.05L469.42 3.05L469.42 3.05Q470.29 3.05 470.96 3.16L470.96 3.16L470.96 3.16Q471.58 3.26 471.88 3.37L471.88 3.37L471.88 3.37Q472.19 3.48 472.22 3.48L472.22 3.48L472.22 3.48Q472.39 3.48 472.41 3.41L472.41 3.41L472.41 3.41Q472.44 3.33 472.44 3.09L472.44 3.09L472.44 2.97L472.97 2.97L472.97 2.97Q473.01 4.30 473.14 5.64L473.14 5.64L472.64 5.65L472.64 5.65Q472.61 5.40 472.60 5.26L472.60 5.26L472.60 5.26Q472.60 5.20 472.59 5.13L472.59 5.13L472.59 5.13Q472.58 5.07 472.58 5.02L472.58 5.02L472.58 5.02Q472.57 4.98 472.57 4.95L472.57 4.95L472.57 4.95Q472.54 4.84 472.54 4.74L472.54 4.74L472.54 4.74Q472.54 4.68 472.50 4.59L472.50 4.59L472.50 4.59Q472.50 4.57 472.47 4.55L472.47 4.55L472.47 4.55Q472.44 4.52 472.44 4.50L472.44 4.50L472.44 4.50Q472.41 4.44 472.34 4.41L472.34 4.41L472.34 4.41Q472.30 4.38 472.27 4.37L472.27 4.37L472.27 4.37Q472.25 4.36 472.22 4.35L472.22 4.35L472.22 4.35Q472.21 4.35 472.18 4.33L472.18 4.33L472.18 4.33Q472.16 4.31 472.12 4.29L472.12 4.29L472.12 4.29Q472.08 4.27 472.04 4.25L472.04 4.25L472.04 4.25Q471.81 4.16 471.78 4.14L471.78 4.14L471.78 4.14Q471.43 3.96 470.79 3.83L470.79 3.83L470.79 3.83Q470.12 3.71 469.46 3.71L469.46 3.71L469.46 3.71Q467.74 3.71 466.64 4.84L466.64 4.84L466.64 4.84Q465.53 5.99 465.54 7.62L465.54 7.62L465.54 7.62Q465.54 9.35 466.76 10.69L466.76 10.69L466.76 10.69Q467.96 12.02 469.78 12.02L469.78 12.02L469.78 12.02Q470.78 12.02 471.73 11.49L471.73 11.49L471.73 11.49Q472.68 10.94 472.71 10.58L472.71 10.58L472.75 9.41L473.24 9.41L473.16 11.45L473.16 11.45Q473.09 11.49 472.96 11.57L472.96 11.57L472.96 11.57Q472.90 11.60 472.44 11.85L472.44 11.85L472.44 11.85Q472.06 12.05 471.62 12.23L471.62 12.23L471.62 12.23Q471.26 12.39 470.61 12.51L470.61 12.51L470.61 12.51Q470.00 12.63 469.43 12.64L469.43 12.64L469.43 12.64Q467.05 12.64 465.69 11.39L465.69 11.39L465.69 11.39Q464.35 10.14 464.35 8.02ZM481.28 3.64L481.27 3.08L488.48 3.08L488.48 3.08Q488.50 4.14 488.55 5.28L488.55 5.28L488.00 5.30L488.00 5.30Q487.99 4.66 487.94 4.25L487.94 4.25L487.94 4.25Q487.89 3.89 487.84 3.80L487.84 3.80L487.84 3.80Q487.79 3.71 487.67 3.69L487.67 3.69L487.67 3.69Q487.57 3.68 486.99 3.68L486.99 3.68L484.61 3.68L484.61 3.68Q484.06 3.68 483.92 3.77L483.92 3.77L483.92 3.77Q483.79 3.86 483.79 4.33L483.79 4.33L483.79 6.28L483.79 6.28Q483.79 6.69 483.85 6.76L483.85 6.76L483.85 6.76Q483.92 6.84 484.26 6.84L484.26 6.84L486.37 6.84L486.37 6.84Q486.73 6.84 486.81 6.73L486.81 6.73L486.81 6.73Q486.90 6.63 486.90 6.14L486.90 6.14L486.90 5.61L487.42 5.63L487.42 8.97L486.90 8.97L486.90 8.24L486.90 8.24Q486.90 7.66 486.83 7.57L486.83 7.57L486.83 7.57Q486.75 7.46 486.40 7.46L486.40 7.46L484.30 7.46L484.30 7.46Q483.96 7.46 483.88 7.54L483.88 7.54L483.88 7.54Q483.79 7.63 483.79 7.89L483.79 7.89L483.79 11.20L483.79 11.20Q483.79 11.57 483.88 11.67L483.88 11.67L483.88 11.67Q483.96 11.77 484.24 11.77L484.24 11.77L484.24 11.77Q487.16 11.75 487.68 11.69L487.68 11.69L487.68 11.69Q488.20 11.63 488.28 11.38L488.28 11.38L488.29 11.36L488.30 11.35L488.52 10.17L489.00 10.25L488.65 12.41L481.55 12.41L481.55 11.87L481.92 11.87L481.92 11.87Q482.48 11.87 482.56 11.80L482.56 11.80L482.56 11.80Q482.66 11.72 482.66 11.33L482.66 11.33L482.66 4.24L482.66 4.24Q482.66 3.82 482.51 3.73L482.51 3.73L482.51 3.73Q482.34 3.64 481.68 3.64L481.68 3.64L481.28 3.64Z"></path></g></svg>