<svg data-v-fde0c5aa="" xmlns="http://www.w3.org/2000/svg" width="250" height="250" viewBox="0 0 300 300" class="iconLeftSlogan"><defs data-v-fde0c5aa=""><!----></defs><g data-v-fde0c5aa="" id="123cad5e-8bc9-428d-b2ba-d08941c8f1c9" stroke="none" fill="#BF4040" transform="matrix(1.0578808403524407,0,0,1.0578808403524407,20.764550064870715,98.69701045957041)"><g><path d="M27.711 36.773l-1.308-3.176 34.38-14.157h.34c4.893 0 8.874 3.981 8.874 8.874v6.584h-3.435v-6.584a5.445 5.445 0 0 0-5.121-5.43l-33.73 13.889z"></path><path d="M72.287 77.552h-45.23c-4.893 0-8.874-3.981-8.874-8.874V42.342c0-4.893 3.981-8.874 8.874-8.874h45.23c4.893 0 8.874 3.981 8.874 8.874v26.336c-.001 4.893-3.981 8.874-8.874 8.874zm-45.23-40.649a5.445 5.445 0 0 0-5.439 5.439v26.336a5.445 5.445 0 0 0 5.439 5.439h45.23a5.445 5.445 0 0 0 5.439-5.439V42.342a5.445 5.445 0 0 0-5.439-5.439h-45.23z"></path><path d="M70.092 56.941h-6.87a1.718 1.718 0 1 1 0-3.436h6.87a1.718 1.718 0 1 1 0 3.436z"></path></g></g></svg>